PathFileType	4	(X/Y/Z)	Patient4_TMGait_0pt6_02_left_26.trc.trc
DataRate	CameraRate	NumFrames	NumMarkers	Units	OrigDataRate	OrigDataStartFrame	OrigNumFrames
81.871345029240	81.871345029240	4	33	mm	81.871345029240	18	       141
Frame#	Time	Sacral			L.Shoulder			Chest			R.Shoulder			Neck			R.ASIS			L.ASIS			R.Thigh.Superior			R.Thigh.Lateral			R.Thigh.Inferior			R.Patella			L.Thigh.Superior			L.Thigh.Lateral			L.Thigh.Inferior			L.Patella			L.Shank.Superior			L.Shank.Lateral			L.Shank.Inferior			R.Shank.Superior			R.Shank.Lateral			R.Shank.Inferior			R.Heel			R.Midfoot.Superior			R.Midfoot.Lateral			R.Toe			L.Heel			L.Midfoot.Lateral			L.Midfoot.Superior			L.Toe			L.Elbow			L.Wrist			R.Elbow			R.Wrist			
		X1	Y1	Z1	X2	Y2	Z2	X3	Y3	Z3	X4	Y4	Z4	X5	Y5	Z5	X6	Y6	Z6	X7	Y7	Z7	X8	Y8	Z8	X9	Y9	Z9	X10	Y10	Z10	X11	Y11	Z11	X12	Y12	Z12	X13	Y13	Z13	X14	Y14	Z14	X15	Y15	Z15	X16	Y16	Z16	X17	Y17	Z17	X18	Y18	Z18	X19	Y19	Z19	X20	Y20	Z20	X21	Y21	Z21	X22	Y22	Z22	X23	Y23	Z23	X24	Y24	Z24	X25	Y25	Z25	X26	Y26	Z26	X27	Y27	Z27	X28	Y28	Z28	X29	Y29	Z29	X30	Y30	Z30	X31	Y31	Z31	X32	Y32	Z32	X33	Y33	Z33	

18	32.017642857143	845.135475478742	1009.304555614259	487.161823208661	1026.616994150140	1438.162241350164	313.291557718179	1139.516354409859	1357.163406678021	460.875464784081	1075.245862549388	1431.332399020410	641.873851290831	1043.877893442576	1491.289005769956	465.743012707089	1073.442516249191	941.829710020263	595.124359112328	1049.983405898702	958.569575066504	319.149523133717	1079.944136663755	732.513449229344	568.112959969858	979.676751193211	634.004708738563	625.756217096402	1047.969090387803	572.884229443710	548.862330344184	1033.310759505296	487.549666096128	553.953290743397	1126.164049599321	786.377219354978	339.879878013138	1081.984519013308	654.850199325497	259.837561124342	1194.086237270458	603.083563542535	310.855643055924	1223.734118838670	536.199380928052	304.745515388360	1206.678948655484	460.907288494184	299.386624127604	1134.209153943344	331.782604111091	255.514010661837	1223.453456351058	232.065234870418	304.770047557511	999.186660848671	400.538108286436	557.282469674346	914.817819191689	301.553236991180	610.630522666855	956.298630984078	205.102786310524	548.876316383942	816.859179964681	41.542967069070	507.627056974408	988.684224279052	97.631690907545	548.207824717192	898.757773095848	36.383905101920	584.134336811668	1106.944482988127	45.603569158991	576.673936600809	1142.254449512945	51.802136447924	351.362713574803	1209.684234161851	56.479127850572	265.982748456956	1280.032426035970	136.032429282254	280.348448120426	1411.726526803407	108.790046937335	244.539580941181	874.420291518178	1120.963059296275	205.334102023207	840.125866688315	861.846716766070	200.947486143057	1122.574631583350	1095.977975438527	768.238917751445	1356.429920234043	1123.400941691110	688.847719342717	
19	32.029857142857	845.408950510377	1008.387244465897	484.990027908509	1025.810942787387	1437.087717318714	311.025526937325	1138.778619053602	1356.690543379780	458.912332497840	1073.913706563384	1430.957337863235	639.702531098430	1042.741259128064	1490.547768931884	463.421328731849	1073.252903973580	940.955799498734	593.540927725244	1050.861550771007	957.491096309052	317.630161935588	1078.274852350149	731.202351205096	566.965807592651	976.938841529215	633.500638254578	624.612885848092	1044.609924555737	571.674890071636	547.766293690403	1029.202133489912	486.465377187993	552.737941691482	1127.154666960075	784.858658743853	339.824495150403	1082.508907170593	653.044579386339	260.881417745693	1193.902365136724	600.758994730772	312.486584742272	1222.204116449811	532.765353848170	307.226700908690	1204.048684857479	457.091899007922	301.920080830949	1129.505510410996	329.205279527727	258.070969332686	1216.248974022174	228.084989174439	308.681347018401	994.507841139426	399.680492666802	556.266487104950	909.594635237702	301.390506352206	610.111991837902	949.968922090053	204.576678873154	548.264364356901	809.469429789025	41.456049520277	507.605235739932	981.257535115273	97.479794767959	548.076839373957	891.331419201344	36.346542418794	584.134888912726	1099.539808690702	45.423017100977	576.745553844643	1130.999539750701	50.175733264502	355.149463734855	1199.240384646633	53.154557529680	270.384523277509	1271.210332084824	130.882102917624	285.365763180964	1402.529239386781	100.538904039470	250.814088682237	873.573129913003	1119.801699277217	203.754033174674	839.821978455105	860.589431095226	199.258515958538	1119.488070199388	1095.467282493159	766.530115524578	1352.121578581549	1123.793327877911	684.495508490070	
20	32.042071428571	845.869147448510	1007.348066018172	482.646312024338	1025.109620932520	1435.876701725685	308.565037100366	1138.130587066722	1356.154996468269	456.808029464804	1072.546121256428	1430.484568858954	637.368525253045	1041.641611317672	1489.714940447107	460.893229068033	1073.248303931996	939.969288667745	591.842524344133	1051.995204248539	956.278548047944	316.087210913355	1076.967300899144	729.788664624108	565.764060640244	974.619523828513	632.862013528380	623.368883198104	1041.678142593103	570.353104980168	546.532669236732	1025.517527721098	485.205780667509	551.343304777546	1128.233313824349	782.813686972004	339.898904974174	1082.739689010271	650.894397883760	262.081088575010	1193.279144284785	597.841929371290	314.474377718330	1220.031626733194	528.713043799119	310.131707054400	1200.722911991050	452.778459527478	304.712770340514	1124.052631541787	326.221651773257	260.697117024935	1208.100319752620	223.621818428645	312.780897588686	990.190948384788	398.681576043998	555.110654038437	904.684964487802	301.169880671201	609.530898116628	943.794019059327	203.972761429340	547.570300943251	802.101116705728	41.368264380258	507.573017842605	973.852716659723	97.311211447596	547.921387391468	883.918742062152	36.307111677426	584.123088407827	1092.151229913681	45.164532811883	576.823179298359	1118.511773420856	48.256721427196	358.752870631400	1187.698540700365	49.612499431211	274.706820319910	1261.357859675380	125.294396015412	290.665468013535	1392.321687653817	91.699451063786	257.526887748166	873.076515994318	1118.338498230752	201.987928395856	840.487627302586	858.940526700804	197.384250779343	1115.804692449933	1094.765866653530	764.783821981223	1347.486891469697	1122.867227318996	680.293989685714	
21	32.054285714286	846.474009312593	1006.234601104891	480.166713385075	1024.555664741939	1434.558506474145	305.914750022262	1137.596289855298	1355.570838900512	454.572955850889	1071.175827581236	1429.943939013193	634.876582623390	1040.621144251705	1488.823699153970	458.155536853010	1073.412994002178	938.893489080607	590.053613300980	1053.313475969984	954.984989638092	314.542521280135	1076.047684479817	728.301218893221	564.484868087275	972.769036079033	632.093165487912	622.002272816652	1039.241765964359	568.934117726005	545.147177772675	1022.330969628159	483.762793386877	549.759039055875	1129.295555666869	780.271922011994	340.077554206128	1082.571272937725	648.466136269705	263.355934498874	1192.120812351187	594.433288995798	316.748877327007	1217.197326371427	524.240092943841	313.356259602437	1196.774334098972	448.184960596595	307.641678507833	1118.091210519185	322.959002974549	263.286272133014	1199.398092135166	218.926244865290	316.897180399248	986.278200201434	397.548240250800	553.805496517111	900.110975533624	300.919071650508	608.868399142601	937.795605415071	203.312007623479	546.791578053909	794.761510890256	41.314713331912	507.525634677754	966.487667625451	97.140610429266	547.743462527336	876.528584460428	36.280663193371	584.089790540749	1084.786433378868	44.815759736591	576.905837462899	1105.450304177272	46.187088770446	362.048239670125	1175.638987841750	46.103211321005	278.761399822538	1250.956898219571	119.609075589803	296.014626958646	1381.593108957447	82.792848377314	264.319591467594	873.004153768804	1116.592027044755	200.020862804074	842.118426519102	856.933535737553	195.321639723943	1111.521807986165	1093.905793446378	762.966131167133	1342.550419095308	1120.606419869001	676.262586032962	
